<svg width="27" height="27" viewBox="0 0 27 27" fill="none" xmlns="http://www.w3.org/2000/svg">
<mask id="mask0_385_1469" style="mask-type:alpha" maskUnits="userSpaceOnUse" x="0" y="0" width="27" height="27">
<rect width="26.6717" height="26.6717" fill="#D9D9D9" style="fill:#D9D9D9;fill:color(display-p3 0.8510 0.8510 0.8510);fill-opacity:1;"/>
</mask>
<g mask="url(#mask0_385_1469)">
<path d="M5.55663 23.3378C4.9454 23.3378 4.42215 23.1202 3.98689 22.6849C3.55162 22.2496 3.33398 21.7264 3.33398 21.1151V5.55663C3.33398 4.9454 3.55162 4.42215 3.98689 3.98689C4.42215 3.55162 4.9454 3.33398 5.55663 3.33398H21.1151C21.7264 3.33398 22.2496 3.55162 22.6849 3.98689C23.1202 4.42215 23.3378 4.9454 23.3378 5.55663V21.1151C23.3378 21.7264 23.1202 22.2496 22.6849 22.6849C22.2496 23.1202 21.7264 23.3378 21.1151 23.3378H5.55663ZM5.55663 21.1151H21.1151V5.55663H5.55663V21.1151ZM8.8906 18.8925H14.4472C14.7621 18.8925 15.026 18.786 15.239 18.573C15.452 18.36 15.5585 18.0961 15.5585 17.7812C15.5585 17.4663 15.452 17.2024 15.239 16.9894C15.026 16.7764 14.7621 16.6699 14.4472 16.6699H8.8906C8.57572 16.6699 8.31178 16.7764 8.09878 16.9894C7.88578 17.2024 7.77928 17.4663 7.77928 17.7812C7.77928 18.0961 7.88578 18.36 8.09878 18.573C8.31178 18.786 8.57572 18.8925 8.8906 18.8925ZM8.8906 14.4472H17.7812C18.0961 14.4472 18.36 14.3407 18.573 14.1277C18.786 13.9147 18.8925 13.6508 18.8925 13.3359C18.8925 13.021 18.786 12.7571 18.573 12.5441C18.36 12.3311 18.0961 12.2246 17.7812 12.2246H8.8906C8.57572 12.2246 8.31178 12.3311 8.09878 12.5441C7.88578 12.7571 7.77928 13.021 7.77928 13.3359C7.77928 13.6508 7.88578 13.9147 8.09878 14.1277C8.31178 14.3407 8.57572 14.4472 8.8906 14.4472ZM8.8906 10.0019H17.7812C18.0961 10.0019 18.36 9.89542 18.573 9.68242C18.786 9.46941 18.8925 9.20547 18.8925 8.8906C18.8925 8.57572 18.786 8.31178 18.573 8.09878C18.36 7.88578 18.0961 7.77928 17.7812 7.77928H8.8906C8.57572 7.77928 8.31178 7.88578 8.09878 8.09878C7.88578 8.31178 7.77928 8.57572 7.77928 8.8906C7.77928 9.20547 7.88578 9.46941 8.09878 9.68242C8.31178 9.89542 8.57572 10.0019 8.8906 10.0019Z" fill="#79BCCD" style="fill:#79BCCD;fill:color(display-p3 0.4745 0.7373 0.8039);fill-opacity:1;"/>
</g>
</svg>
