<svg width="20" height="20" viewBox="0 0 20 20" fill="none" xmlns="http://www.w3.org/2000/svg">
<mask id="mask0_180_61" style="mask-type:alpha" maskUnits="userSpaceOnUse" x="0" y="0" width="20" height="20">
<rect width="20" height="20" fill="#D9D9D9" style="fill:#D9D9D9;fill:color(display-p3 0.8510 0.8510 0.8510);fill-opacity:1;"/>
</mask>
<g mask="url(#mask0_180_61)">
<path d="M7.56315 13.5418L10.0007 12.0627L12.4382 13.5418L11.7923 10.771L13.959 8.896L11.1048 8.66683L10.0007 6.04183L8.89649 8.66683L6.04232 8.896L8.20899 10.771L7.56315 13.5418ZM10.0007 19.4168L7.20898 16.6668H3.33398V12.7918L0.583984 10.0002L3.33398 7.2085V3.3335H7.20898L10.0007 0.583496L12.7923 3.3335H16.6673V7.2085L19.4173 10.0002L16.6673 12.7918V16.6668H12.7923L10.0007 19.4168ZM10.0007 17.0835L12.084 15.0002H15.0007V12.0835L17.084 10.0002L15.0007 7.91683V5.00016H12.084L10.0007 2.91683L7.91732 5.00016H5.00065V7.91683L2.91732 10.0002L5.00065 12.0835V15.0002H7.91732L10.0007 17.0835Z" fill="white" style="fill:white;fill-opacity:1;"/>
</g>
</svg>
