<svg width="20" height="20" viewBox="0 0 20 20" fill="none" xmlns="http://www.w3.org/2000/svg">
<mask id="mask0_180_316" style="mask-type:alpha" maskUnits="userSpaceOnUse" x="0" y="0" width="20" height="20">
<rect width="20" height="20" fill="#D9D9D9" style="fill:#D9D9D9;fill:color(display-p3 0.8510 0.8510 0.8510);fill-opacity:1;"/>
</mask>
<g mask="url(#mask0_180_316)">
<path d="M9.99935 11.9167C10.7077 11.2639 11.2806 10.7257 11.7181 10.3021C12.1556 9.87847 12.4924 9.51389 12.7285 9.20833C12.9646 8.90278 13.1243 8.63542 13.2077 8.40625C13.291 8.17708 13.3327 7.93056 13.3327 7.66667C13.3327 7.16667 13.1521 6.73611 12.791 6.375C12.4299 6.01389 11.9993 5.83333 11.4993 5.83333C11.2077 5.83333 10.9264 5.89236 10.6556 6.01042C10.3848 6.12847 10.166 6.29167 9.99935 6.5C9.83268 6.29167 9.6174 6.12847 9.35352 6.01042C9.08963 5.89236 8.8049 5.83333 8.49935 5.83333C7.99935 5.83333 7.56879 6.01389 7.20768 6.375C6.84657 6.73611 6.66602 7.16667 6.66602 7.66667C6.66602 7.93056 6.70421 8.17361 6.7806 8.39583C6.85699 8.61806 7.01324 8.88194 7.24935 9.1875C7.48546 9.49306 7.81879 9.85764 8.24935 10.2813C8.6799 10.7049 9.26324 11.25 9.99935 11.9167ZM4.16602 17.5V4.16667C4.16602 3.70833 4.32921 3.31597 4.6556 2.98958C4.98199 2.66319 5.37435 2.5 5.83268 2.5H14.166C14.6243 2.5 15.0167 2.66319 15.3431 2.98958C15.6695 3.31597 15.8327 3.70833 15.8327 4.16667V17.5L9.99935 15L4.16602 17.5ZM5.83268 14.9583L9.99935 13.1667L14.166 14.9583V4.16667H5.83268V14.9583Z" fill="white" style="fill:white;fill-opacity:1;"/>
</g>
</svg>
