<svg width="20" height="20" viewBox="0 0 20 20" fill="none" xmlns="http://www.w3.org/2000/svg">
<mask id="mask0_180_880" style="mask-type:alpha" maskUnits="userSpaceOnUse" x="0" y="0" width="20" height="20">
<rect width="20" height="20" fill="#D9D9D9" style="fill:#D9D9D9;fill:color(display-p3 0.8510 0.8510 0.8510);fill-opacity:1;"/>
</mask>
<g mask="url(#mask0_180_880)">
<path d="M3.16702 18.3332H2.50035V16.6665H3.16702C3.83368 16.6665 4.4691 16.5936 5.07327 16.4478C5.67743 16.3019 6.35452 16.0693 7.10452 15.7498C7.6323 16.0137 8.0941 16.2325 8.48993 16.4061C8.88577 16.5797 9.38924 16.6665 10.0004 16.6665C10.6115 16.6665 11.1149 16.5797 11.5108 16.4061C11.9066 16.2325 12.3684 16.0137 12.8962 15.7498C13.6323 16.0693 14.3094 16.3019 14.9274 16.4478C15.5455 16.5936 16.1879 16.6665 16.8545 16.6665H17.5004V18.3332H16.8545C16.174 18.3332 15.5108 18.2707 14.8649 18.1457C14.2191 18.0207 13.5837 17.8332 12.9587 17.5832C12.4031 17.8471 11.8962 18.0346 11.4379 18.1457C10.9795 18.2568 10.5003 18.3123 10.0004 18.3123C9.50035 18.3123 9.02466 18.2568 8.57327 18.1457C8.12188 18.0346 7.61841 17.8471 7.06285 17.5832C6.43785 17.8332 5.80243 18.0207 5.1566 18.1457C4.51077 18.2707 3.84757 18.3332 3.16702 18.3332ZM10.0004 14.9998C9.16702 14.9998 8.43785 14.7221 7.81285 14.1665L6.87535 13.3332C6.50035 13.7082 6.08021 14.0276 5.61493 14.2915C5.14966 14.5554 4.65313 14.7429 4.12535 14.854L2.35452 9.1665C2.28507 8.93039 2.30591 8.71512 2.41702 8.52067C2.52813 8.32623 2.70174 8.19428 2.93785 8.12484L4.16702 7.7915V4.99984C4.16702 4.5415 4.33021 4.14914 4.6566 3.82275C4.98299 3.49637 5.37535 3.33317 5.83368 3.33317H7.91702V1.6665H12.0837V3.33317H14.167C14.6254 3.33317 15.0177 3.49637 15.3441 3.82275C15.6705 4.14914 15.8337 4.5415 15.8337 4.99984V7.7915L17.0629 8.12484C17.299 8.19428 17.4726 8.32623 17.5837 8.52067C17.6948 8.71512 17.7156 8.93039 17.6462 9.1665L15.8753 14.854C15.3476 14.7429 14.851 14.5554 14.3858 14.2915C13.9205 14.0276 13.5004 13.7082 13.1254 13.3332L12.1878 14.1665C11.5628 14.7221 10.8337 14.9998 10.0004 14.9998ZM10.042 13.3332C10.4726 13.3332 10.8545 13.1908 11.1878 12.9061C11.5212 12.6214 11.8267 12.3193 12.1045 11.9998L13.0629 10.8957L13.917 11.7707C14.0698 11.9234 14.226 12.0658 14.3858 12.1978C14.5455 12.3297 14.7017 12.4651 14.8545 12.604L15.8129 9.49984L10.0004 7.979L4.20868 9.49984L5.16702 12.604C5.3198 12.4651 5.47605 12.3297 5.63577 12.1978C5.79549 12.0658 5.95174 11.9234 6.10452 11.7707L6.95868 10.8957L7.91702 11.9998C8.19479 12.3332 8.50729 12.6387 8.85452 12.9165C9.20174 13.1943 9.59757 13.3332 10.042 13.3332ZM5.83368 7.354L10.0004 6.24984L14.167 7.354V4.99984H5.83368V7.354Z" fill="white" style="fill:white;fill-opacity:1;"/>
</g>
</svg>
