<svg width="20" height="20" viewBox="0 0 20 20" fill="none" xmlns="http://www.w3.org/2000/svg">
<mask id="mask0_179_1111" style="mask-type:alpha" maskUnits="userSpaceOnUse" x="0" y="0" width="20" height="20">
<rect width="20" height="20" fill="#D9D9D9" style="fill:#D9D9D9;fill:color(display-p3 0.8510 0.8510 0.8510);fill-opacity:1;"/>
</mask>
<g mask="url(#mask0_179_1111)">
<path d="M6.24935 13.7498L12.0827 12.0832L13.7493 6.24984L7.91602 7.9165L6.24935 13.7498ZM9.99935 11.2498C9.65213 11.2498 9.35699 11.1283 9.11393 10.8853C8.87088 10.6422 8.74935 10.3471 8.74935 9.99984C8.74935 9.65262 8.87088 9.35748 9.11393 9.11442C9.35699 8.87136 9.65213 8.74984 9.99935 8.74984C10.3466 8.74984 10.6417 8.87136 10.8848 9.11442C11.1278 9.35748 11.2493 9.65262 11.2493 9.99984C11.2493 10.3471 11.1278 10.6422 10.8848 10.8853C10.6417 11.1283 10.3466 11.2498 9.99935 11.2498ZM9.99935 18.3332C8.84657 18.3332 7.76324 18.1144 6.74935 17.6769C5.73546 17.2394 4.85352 16.6457 4.10352 15.8957C3.35352 15.1457 2.75977 14.2637 2.32227 13.2498C1.88477 12.2359 1.66602 11.1526 1.66602 9.99984C1.66602 8.84706 1.88477 7.76373 2.32227 6.74984C2.75977 5.73595 3.35352 4.854 4.10352 4.104C4.85352 3.354 5.73546 2.76025 6.74935 2.32275C7.76324 1.88525 8.84657 1.6665 9.99935 1.6665C11.1521 1.6665 12.2355 1.88525 13.2493 2.32275C14.2632 2.76025 15.1452 3.354 15.8952 4.104C16.6452 4.854 17.2389 5.73595 17.6764 6.74984C18.1139 7.76373 18.3327 8.84706 18.3327 9.99984C18.3327 11.1526 18.1139 12.2359 17.6764 13.2498C17.2389 14.2637 16.6452 15.1457 15.8952 15.8957C15.1452 16.6457 14.2632 17.2394 13.2493 17.6769C12.2355 18.1144 11.1521 18.3332 9.99935 18.3332ZM9.99935 16.6665C11.8466 16.6665 13.4195 16.0172 14.7181 14.7186C16.0167 13.42 16.666 11.8471 16.666 9.99984C16.666 8.15262 16.0167 6.5797 14.7181 5.28109C13.4195 3.98248 11.8466 3.33317 9.99935 3.33317C8.15213 3.33317 6.57921 3.98248 5.2806 5.28109C3.98199 6.5797 3.33268 8.15262 3.33268 9.99984C3.33268 11.8471 3.98199 13.42 5.2806 14.7186C6.57921 16.0172 8.15213 16.6665 9.99935 16.6665Z" fill="white" style="fill:white;fill-opacity:1;"/>
</g>
</svg>
