<svg width="27" height="27" viewBox="0 0 27 27" fill="none" xmlns="http://www.w3.org/2000/svg">
<mask id="mask0_385_1488" style="mask-type:alpha" maskUnits="userSpaceOnUse" x="0" y="0" width="27" height="27">
<rect width="26.6717" height="26.6717" fill="#D9D9D9" style="fill:#D9D9D9;fill:color(display-p3 0.8510 0.8510 0.8510);fill-opacity:1;"/>
</mask>
<g mask="url(#mask0_385_1488)">
<path d="M13.3359 17.7812C14.2249 17.7812 15.0168 17.5172 15.7113 16.9894C16.4059 16.4615 16.9106 15.7808 17.2255 14.9473H9.44625C9.76113 15.7808 10.2659 16.4615 10.9604 16.9894C11.655 17.5172 12.4468 17.7812 13.3359 17.7812ZM10.5576 13.3359C11.0206 13.3359 11.4142 13.1738 11.7384 12.8497C12.0625 12.5255 12.2246 12.132 12.2246 11.6689C12.2246 11.2058 12.0625 10.8123 11.7384 10.4881C11.4142 10.164 11.0206 10.0019 10.5576 10.0019C10.0945 10.0019 9.70093 10.164 9.3768 10.4881C9.05266 10.8123 8.89059 11.2058 8.89059 11.6689C8.89059 12.132 9.05266 12.5255 9.3768 12.8497C9.70093 13.1738 10.0945 13.3359 10.5576 13.3359ZM16.1142 13.3359C16.5772 13.3359 16.9708 13.1738 17.295 12.8497C17.6191 12.5255 17.7812 12.132 17.7812 11.6689C17.7812 11.2058 17.6191 10.8123 17.295 10.4881C16.9708 10.164 16.5772 10.0019 16.1142 10.0019C15.6511 10.0019 15.2575 10.164 14.9334 10.4881C14.6093 10.8123 14.4472 11.2058 14.4472 11.6689C14.4472 12.132 14.6093 12.5255 14.9334 12.8497C15.2575 13.1738 15.6511 13.3359 16.1142 13.3359ZM8.47385 7.11248L11.5855 3.08393C11.8078 2.78758 12.0718 2.56994 12.3774 2.43103C12.683 2.29211 13.0025 2.22266 13.3359 2.22266C13.6693 2.22266 13.9888 2.29211 14.2944 2.43103C14.6 2.56994 14.864 2.78758 15.0862 3.08393L18.1979 7.11248L22.921 8.69611C23.4026 8.84429 23.7823 9.11749 24.0601 9.51571C24.338 9.91394 24.4769 10.3538 24.4769 10.8354C24.4769 11.0577 24.4445 11.2799 24.3797 11.5022C24.3148 11.7245 24.2083 11.9375 24.0601 12.1412L21.004 16.4754L21.1151 21.0318C21.1337 21.6801 20.9207 22.2265 20.4761 22.671C20.0316 23.1155 19.513 23.3378 18.9203 23.3378C18.8832 23.3378 18.6795 23.31 18.3091 23.2544L13.3359 21.8653L8.36271 23.2544C8.2701 23.2915 8.16823 23.3146 8.0571 23.3239C7.94597 23.3332 7.8441 23.3378 7.75149 23.3378C7.15878 23.3378 6.64016 23.1155 6.19563 22.671C5.75111 22.2265 5.5381 21.6801 5.55662 21.0318L5.66776 16.4476L2.6394 12.1412C2.49123 11.9375 2.38472 11.7245 2.3199 11.5022C2.25507 11.2799 2.22266 11.0577 2.22266 10.8354C2.22266 10.3724 2.35694 9.94172 2.62551 9.5435C2.89408 9.14527 3.26915 8.86281 3.75072 8.69611L8.47385 7.11248ZM9.83522 9.02951L4.4453 10.8076L7.8904 15.7808L7.77927 21.0874L13.3359 19.5593L18.8925 21.1151L18.7814 15.7808L22.2265 10.8632L16.8365 9.02951L13.3359 4.4453L9.83522 9.02951Z" fill="#79BCCD" style="fill:#79BCCD;fill:color(display-p3 0.4745 0.7373 0.8039);fill-opacity:1;"/>
</g>
</svg>
