<svg width="721" height="114" viewBox="0 0 721 114" fill="none" xmlns="http://www.w3.org/2000/svg">
<g style="mix-blend-mode:plus-lighter" opacity="0.5">
<mask id="mask0_259_377" style="mask-type:luminance" maskUnits="userSpaceOnUse" x="4" y="21" width="714" height="83">
<path d="M58.7522 79.6128C58.7522 86.9616 56.3279 92.53 51.4792 96.318C46.6305 100.106 40.3803 102 32.7285 102H6.13659C5.75779 102 5.41687 101.886 5.11383 101.659C4.88655 101.356 4.77291 101.015 4.77291 100.636V23.8153C4.77291 23.4365 4.88655 23.1334 5.11383 22.9061C5.41687 22.6031 5.75779 22.4516 6.13659 22.4516H30.7966C39.3575 22.4516 45.9487 24.2698 50.5701 27.9063C55.1914 31.4671 57.5021 37.0355 57.5021 44.6115C57.5021 51.8845 54.8505 57.1877 49.5473 60.5212C49.0927 60.7485 49.0549 60.9757 49.4337 61.203C55.646 65.1426 58.7522 71.2792 58.7522 79.6128ZM24.2054 38.5885C23.8266 38.5885 23.6372 38.778 23.6372 39.1568V53.5891C23.6372 53.9679 23.8266 54.1573 24.2054 54.1573H30.9102C33.5619 54.1573 35.5695 53.5133 36.9332 52.2254C38.3726 50.8617 39.0924 48.9298 39.0924 46.4298C39.0924 43.9297 38.3726 41.9978 36.9332 40.6341C35.4937 39.2704 33.4861 38.5885 30.9102 38.5885H24.2054ZM31.933 85.7494C34.4331 85.7494 36.365 85.0297 37.7287 83.5902C39.1681 82.075 39.8878 79.9537 39.8878 77.2264C39.8878 74.5747 39.206 72.4913 37.8423 70.9761C36.4786 69.4609 34.5467 68.7033 32.0466 68.7033H24.2054C23.8266 68.7033 23.6372 68.8927 23.6372 69.2715V85.1812C23.6372 85.56 23.8266 85.7494 24.2054 85.7494H31.933ZM68.2838 102C67.905 102 67.5641 101.886 67.261 101.659C67.0337 101.356 66.9201 101.015 66.9201 100.636V23.8153C66.9201 23.4365 67.0337 23.1334 67.261 22.9061C67.5641 22.6031 67.905 22.4516 68.2838 22.4516H84.4208C84.7996 22.4516 85.1026 22.6031 85.3299 22.9061C85.6329 23.1334 85.7844 23.4365 85.7844 23.8153V85.2948C85.7844 85.6736 85.9738 85.863 86.3526 85.863H116.126C116.505 85.863 116.808 86.0146 117.036 86.3176C117.339 86.5449 117.49 86.8479 117.49 87.2267V100.636C117.49 101.015 117.339 101.356 117.036 101.659C116.808 101.886 116.505 102 116.126 102H68.2838ZM149.997 103.136C144.542 103.136 139.731 102.038 135.564 99.8408C131.398 97.6438 128.14 94.5376 125.791 90.5223C123.518 86.507 122.382 81.8477 122.382 76.5445V47.9071C122.382 42.6796 123.518 38.0961 125.791 34.1566C128.14 30.1413 131.398 27.0351 135.564 24.838C139.731 22.641 144.542 21.5425 149.997 21.5425C155.451 21.5425 160.262 22.641 164.429 24.838C168.596 27.0351 171.816 30.1413 174.089 34.1566C176.437 38.0961 177.611 42.6796 177.611 47.9071V76.5445C177.611 81.8477 176.437 86.507 174.089 90.5223C171.816 94.5376 168.596 97.6438 164.429 99.8408C160.262 102.038 155.451 103.136 149.997 103.136ZM149.997 86.8858C152.648 86.8858 154.77 86.0146 156.361 84.2721C157.952 82.4538 158.747 80.1052 158.747 77.2264V47.4525C158.747 44.5736 157.914 42.225 156.247 40.4068C154.656 38.5885 152.573 37.6794 149.997 37.6794C147.345 37.6794 145.224 38.5885 143.633 40.4068C142.042 42.1493 141.246 44.4979 141.246 47.4525V77.2264C141.246 80.1052 142.042 82.4538 143.633 84.2721C145.224 86.0146 147.345 86.8858 149.997 86.8858ZM202.387 102C201.629 102 201.137 101.621 200.909 100.864L182.5 23.9289V23.4743C182.5 22.7925 182.916 22.4516 183.75 22.4516H200.682C201.591 22.4516 202.084 22.8683 202.16 23.7016L209.66 63.1349C209.736 63.3622 209.849 63.4758 210.001 63.4758C210.152 63.4758 210.266 63.3622 210.342 63.1349L217.387 23.7016C217.463 22.8683 217.956 22.4516 218.865 22.4516H233.411C234.32 22.4516 234.812 22.8683 234.888 23.7016L242.616 63.1349C242.691 63.3622 242.805 63.4758 242.956 63.4758C243.108 63.4758 243.222 63.3622 243.297 63.1349L250.116 23.7016C250.192 22.8683 250.684 22.4516 251.593 22.4516H268.071C269.132 22.4516 269.548 22.944 269.321 23.9289L252.389 100.75C252.237 101.583 251.745 102 250.911 102H235.57C234.661 102 234.168 101.583 234.093 100.75L226.251 59.2711C226.176 59.0439 226.062 58.9302 225.91 58.9302C225.759 58.9302 225.645 59.0439 225.569 59.2711L218.751 100.75C218.675 101.583 218.183 102 217.274 102H202.387ZM299.594 103.136C294.139 103.136 289.328 102.038 285.162 99.8408C280.995 97.6438 277.737 94.5376 275.388 90.5223C273.116 86.507 271.979 81.8477 271.979 76.5445V47.9071C271.979 42.6796 273.116 38.0961 275.388 34.1566C277.737 30.1413 280.995 27.0351 285.162 24.838C289.328 22.641 294.139 21.5425 299.594 21.5425C305.049 21.5425 309.859 22.641 314.026 24.838C318.193 27.0351 321.413 30.1413 323.686 34.1566C326.034 38.0961 327.209 42.6796 327.209 47.9071V76.5445C327.209 81.8477 326.034 86.507 323.686 90.5223C321.413 94.5376 318.193 97.6438 314.026 99.8408C309.859 102.038 305.049 103.136 299.594 103.136ZM299.594 86.8858C302.245 86.8858 304.367 86.0146 305.958 84.2721C307.549 82.4538 308.344 80.1052 308.344 77.2264V47.4525C308.344 44.5736 307.511 42.225 305.844 40.4068C304.253 38.5885 302.17 37.6794 299.594 37.6794C296.942 37.6794 294.821 38.5885 293.23 40.4068C291.639 42.1493 290.844 44.4979 290.844 47.4525V77.2264C290.844 80.1052 291.639 82.4538 293.23 84.2721C294.821 86.0146 296.942 86.8858 299.594 86.8858ZM362.188 102.909C356.809 102.909 352.074 101.848 347.983 99.7272C343.892 97.5301 340.71 94.4618 338.437 90.5223C336.24 86.5828 335.141 82.0371 335.141 76.8854V23.8153C335.141 23.4365 335.255 23.1334 335.482 22.9061C335.785 22.6031 336.126 22.4516 336.505 22.4516H352.642C353.021 22.4516 353.324 22.6031 353.551 22.9061C353.854 23.1334 354.006 23.4365 354.006 23.8153V77.7946C354.006 80.4462 354.763 82.6053 356.278 84.2721C357.794 85.9388 359.763 86.7722 362.188 86.7722C364.612 86.7722 366.544 85.9388 367.983 84.2721C369.499 82.6053 370.256 80.4462 370.256 77.7946V23.8153C370.256 23.4365 370.37 23.1334 370.597 22.9061C370.9 22.6031 371.241 22.4516 371.62 22.4516H387.757C388.136 22.4516 388.439 22.6031 388.666 22.9061C388.969 23.1334 389.12 23.4365 389.12 23.8153V76.8854C389.12 82.0371 387.984 86.5828 385.711 90.5223C383.514 94.4618 380.37 97.5301 376.279 99.7272C372.264 101.848 367.567 102.909 362.188 102.909ZM450.689 22.4516C451.068 22.4516 451.371 22.6031 451.598 22.9061C451.901 23.1334 452.052 23.4365 452.052 23.8153V37.3385C452.052 37.7173 451.901 38.0582 451.598 38.3613C451.371 38.5885 451.068 38.7022 450.689 38.7022H433.643C433.264 38.7022 433.075 38.8916 433.075 39.2704V100.636C433.075 101.015 432.923 101.356 432.62 101.659C432.393 101.886 432.09 102 431.711 102H415.574C415.195 102 414.854 101.886 414.551 101.659C414.324 101.356 414.21 101.015 414.21 100.636V39.2704C414.21 38.8916 414.021 38.7022 413.642 38.7022H397.278C396.899 38.7022 396.558 38.5885 396.255 38.3613C396.028 38.0582 395.914 37.7173 395.914 37.3385V23.8153C395.914 23.4365 396.028 23.1334 396.255 22.9061C396.558 22.6031 396.899 22.4516 397.278 22.4516H450.689ZM507.43 102.909C501.975 102.909 497.202 101.962 493.111 100.068C489.096 98.1741 485.952 95.5225 483.679 92.1133C481.482 88.6283 480.384 84.613 480.384 80.0674V77.1127C480.384 76.7339 480.497 76.4309 480.725 76.2036C481.028 75.9005 481.369 75.749 481.747 75.749H497.657C498.036 75.749 498.339 75.9005 498.566 76.2036C498.869 76.4309 499.021 76.7339 499.021 77.1127V79.1582C499.021 81.2795 499.854 83.0978 501.521 84.613C503.188 86.0524 505.422 86.7722 508.226 86.7722C510.574 86.7722 512.355 86.1661 513.567 84.9539C514.779 83.7417 515.385 82.2644 515.385 80.5219C515.385 79.0825 514.93 77.8703 514.021 76.8854C513.188 75.8248 512.014 74.8778 510.498 74.0444C508.983 73.2111 506.369 71.8474 502.657 69.9534C498.339 67.8321 494.664 65.7865 491.634 63.8168C488.604 61.7712 485.99 59.1196 483.793 55.8619C481.672 52.6042 480.611 48.7026 480.611 44.1569C480.611 39.6113 481.709 35.6339 483.906 32.2247C486.104 28.8155 489.172 26.2017 493.111 24.3835C497.051 22.4895 501.559 21.5425 506.635 21.5425C511.862 21.5425 516.521 22.5652 520.612 24.6108C524.703 26.5805 527.885 29.3837 530.158 33.0202C532.507 36.5809 533.681 40.7098 533.681 45.407V47.5662C533.681 47.945 533.53 48.2859 533.227 48.5889C532.999 48.8162 532.696 48.9298 532.317 48.9298H516.408C516.029 48.9298 515.688 48.8162 515.385 48.5889C515.158 48.2859 515.044 47.945 515.044 47.5662V45.6343C515.044 43.4372 514.249 41.5811 512.658 40.0659C511.067 38.4749 508.907 37.6794 506.18 37.6794C503.983 37.6794 502.278 38.2476 501.066 39.384C499.854 40.5204 499.248 42.0735 499.248 44.0433C499.248 45.4827 499.665 46.7707 500.498 47.9071C501.331 48.9677 502.619 50.0284 504.362 51.089C506.18 52.1497 508.907 53.5891 512.544 55.4074L515.839 57.2256C519.931 59.4984 523.188 61.5061 525.613 63.2486C528.037 64.991 530.045 67.226 531.636 69.9534C533.302 72.6807 534.136 75.9763 534.136 79.8401C534.136 86.9616 531.673 92.6057 526.749 96.7725C521.9 100.864 515.461 102.909 507.43 102.909ZM584.975 102C584.141 102 583.649 101.583 583.497 100.75L581.225 90.7496C581.149 90.4465 580.959 90.295 580.656 90.295H561.451C561.148 90.295 560.959 90.4465 560.883 90.7496L558.61 100.75C558.459 101.583 557.966 102 557.133 102H540.428C539.443 102 539.064 101.508 539.291 100.523L559.633 23.588C559.86 22.8304 560.39 22.4516 561.224 22.4516H581.111C581.944 22.4516 582.475 22.8304 582.702 23.588L603.044 100.523L603.157 100.977C603.157 101.659 602.741 102 601.907 102H584.975ZM564.292 75.1808C564.216 75.5596 564.406 75.749 564.86 75.749H577.02C577.171 75.749 577.323 75.7111 577.474 75.6354C577.626 75.4839 577.664 75.2945 577.588 75.0672L571.224 46.8843C571.148 46.5813 571.035 46.4298 570.883 46.4298C570.732 46.4298 570.618 46.5813 570.542 46.8843L564.292 75.1808ZM611.406 102C611.027 102 610.686 101.886 610.383 101.659C610.156 101.356 610.042 101.015 610.042 100.636V23.8153C610.042 23.4365 610.156 23.1334 610.383 22.9061C610.686 22.6031 611.027 22.4516 611.406 22.4516H627.543C627.922 22.4516 628.225 22.6031 628.452 22.9061C628.755 23.1334 628.907 23.4365 628.907 23.8153V85.2948C628.907 85.6736 629.096 85.863 629.475 85.863H659.249C659.627 85.863 659.93 86.0146 660.158 86.3176C660.461 86.5449 660.612 86.8479 660.612 87.2267V100.636C660.612 101.015 660.461 101.356 660.158 101.659C659.93 101.886 659.627 102 659.249 102H611.406ZM717.533 37.2249C717.533 37.6037 717.381 37.9446 717.078 38.2476C716.851 38.4749 716.548 38.5885 716.169 38.5885H686.85C686.471 38.5885 686.282 38.778 686.282 39.1568V53.3618C686.282 53.7406 686.471 53.93 686.85 53.93H704.578C704.957 53.93 705.26 54.0816 705.487 54.3846C705.79 54.6119 705.942 54.9149 705.942 55.2937V68.7033C705.942 69.0821 705.79 69.423 705.487 69.7261C705.26 69.9534 704.957 70.067 704.578 70.067H686.85C686.471 70.067 686.282 70.2564 686.282 70.6352V85.2948C686.282 85.6736 686.471 85.863 686.85 85.863H716.169C716.548 85.863 716.851 86.0146 717.078 86.3176C717.381 86.5449 717.533 86.8479 717.533 87.2267V100.636C717.533 101.015 717.381 101.356 717.078 101.659C716.851 101.886 716.548 102 716.169 102H668.781C668.402 102 668.061 101.886 667.758 101.659C667.531 101.356 667.417 101.015 667.417 100.636V23.8153C667.417 23.4365 667.531 23.1334 667.758 22.9061C668.061 22.6031 668.402 22.4516 668.781 22.4516H716.169C716.548 22.4516 716.851 22.6031 717.078 22.9061C717.381 23.1334 717.533 23.4365 717.533 23.8153V37.2249Z" fill="url(#paint0_linear_259_377)" style=""/>
</mask>
<g mask="url(#mask0_259_377)">
<path d="M938 234L938 42C913 42 895.5 49.7583 878 57.5166C860.5 65.2749 843 73.033 818 73.0329C793 73.0329 775.5 65.2749 758 57.5166C740.5 49.7583 723 42 698 42C673 42 655.5 49.7583 638 57.5166C620.5 65.2749 603 73.0329 578 73.0329C553 73.0329 535.5 65.2749 518 57.5166C500.5 49.7583 483 42 458 42C433 42 415.5 49.758 398 57.5163C380.5 65.2746 363 73.0329 338 73.0329C313 73.0329 295.5 65.2748 278 57.5165C260.5 49.7582 243 41.9999 218 41.9999C193 41.9999 175.5 49.758 158 57.5163C140.5 65.2746 123 73.0329 98 73.0329C73 73.0329 55.5 65.2748 38 57.5165C20.5 49.7582 3.00002 41.9999 -22 41.9999C-47 41.9999 -64.5 49.7582 -82 57.5165C-99.5 65.2748 -117 73.0329 -142 73.0329C-167 73.0329 -184.5 65.2748 -202 57.5165C-219.5 49.7582 -237 41.9999 -262 41.9999C-287 41.9999 -304.5 49.7582 -322 57.5165C-339.5 65.2748 -357 73.0328 -382 73.0328C-407 73.0328 -424.5 65.2748 -442 57.5165C-459.5 49.7582 -477 41.9999 -502 41.9999C-527 41.9999 -544.5 49.7579 -562 57.5162C-579.5 65.2745 -597 73.0328 -622 73.0328C-647 73.0328 -664.5 65.2748 -682 57.5165C-699.5 49.7582 -717 41.9999 -742 41.9999C-767 41.9999 -784.5 49.7582 -802 57.5164C-819.5 65.2747 -837 73.0328 -862 73.0328C-887 73.0328 -904.5 65.2747 -922 57.5164C-939.5 49.7581 -957 41.9998 -982 41.9998C-1007 41.9998 -1024.5 49.7581 -1042 57.5164C-1059.5 65.2747 -1077 73.0328 -1102 73.0328C-1127 73.0328 -1144.5 65.2747 -1162 57.5164C-1179.5 49.7581 -1197 41.9998 -1222 41.9998C-1247 41.9998 -1264.5 49.7581 -1282 57.5164C-1299.5 65.2747 -1317 73.0328 -1342 73.0328C-1367 73.0328 -1384.5 65.2747 -1402 57.5164C-1419.5 49.7581 -1437 41.9998 -1462 41.9998C-1487 41.9998 -1504.5 49.7581 -1522 57.5164C-1539.5 65.2747 -1557 73.0327 -1582 73.0327C-1607 73.0327 -1624.5 65.2747 -1642 57.5164C-1659.5 49.7581 -1677 41.9998 -1702 41.9998C-1727 41.9998 -1744.5 49.7581 -1762 57.5164C-1779.5 65.2747 -1797 73.0327 -1822 73.0327C-1847 73.0327 -1864.5 65.2747 -1882 57.5164C-1899.5 49.7581 -1917 41.9998 -1942 41.9997C-1967 41.9997 -1984.5 49.758 -2002 57.5163C-2019.5 65.2746 -2037 73.0327 -2062 73.0327C-2087 73.0327 -2104.5 65.2746 -2122 57.5163C-2139.5 49.758 -2157 41.9997 -2182 41.9997C-2207 41.9997 -2224.5 49.758 -2242 57.5163C-2259.5 65.2746 -2277 73.0327 -2302 73.0327C-2327 73.0327 -2344.5 65.2746 -2362 57.5163C-2379.5 49.758 -2397 41.9997 -2422 41.9997C-2447 41.9997 -2464.5 49.7578 -2482 57.5161C-2499.5 65.2744 -2517 73.0327 -2542 73.0327C-2567 73.0327 -2584.5 65.2746 -2602 57.5163C-2619.5 49.758 -2637 41.9997 -2662 41.9997C-2687 41.9997 -2704.5 49.758 -2722 57.5163C-2739.5 65.2746 -2757 73.0326 -2782 73.0326C-2807 73.0326 -2824.5 65.2746 -2842 57.5163C-2859.5 49.758 -2877 41.9997 -2902 41.9997L-2902 234L938 234Z" fill="url(#paint1_linear_259_377)" style=""/>
</g>
</g>
<defs>
<linearGradient id="paint0_linear_259_377" x1="703.383" y1="114.625" x2="16.1061" y2="114.625" gradientUnits="userSpaceOnUse">
<stop stop-color="#B32FFF" style="stop-color:#B32FFF;stop-color:color(display-p3 0.7008 0.1841 1.0000);stop-opacity:1;"/>
<stop offset="1" stop-color="#FF367C" style="stop-color:#FF367C;stop-color:color(display-p3 1.0000 0.2101 0.4865);stop-opacity:1;"/>
</linearGradient>
<linearGradient id="paint1_linear_259_377" x1="-982" y1="234" x2="-982" y2="41.9998" gradientUnits="userSpaceOnUse">
<stop offset="0.78" stop-color="white" stop-opacity="0.36" style="stop-color:white;stop-opacity:0.36;"/>
<stop offset="1" stop-color="white" style="stop-color:white;stop-opacity:1;"/>
</linearGradient>
</defs>
</svg>
