<svg width="20" height="20" viewBox="0 0 20 20" fill="none" xmlns="http://www.w3.org/2000/svg">
<mask id="mask0_180_244" style="mask-type:alpha" maskUnits="userSpaceOnUse" x="0" y="0" width="20" height="20">
<rect width="20" height="20" fill="#D9D9D9" style="fill:#D9D9D9;fill:color(display-p3 0.8510 0.8510 0.8510);fill-opacity:1;"/>
</mask>
<g mask="url(#mask0_180_244)">
<path d="M0.833984 10.8332V9.1665H2.52148C2.71593 7.40262 3.43121 5.90262 4.66732 4.6665C5.90343 3.43039 7.40343 2.71511 9.16732 2.52067V1.6665H10.834V2.52067C12.5979 2.71511 14.0979 3.43039 15.334 4.6665C16.5701 5.90262 17.2854 7.40262 17.4798 9.1665H19.1673V10.8332H0.833984ZM4.22982 9.1665H15.7715C15.577 7.73595 14.9347 6.54498 13.8444 5.59359C12.7541 4.6422 11.4729 4.1665 10.0007 4.1665C8.52843 4.1665 7.24718 4.6422 6.1569 5.59359C5.06662 6.54498 4.42426 7.73595 4.22982 9.1665ZM11.9798 10.8332H6.66732V15.8332H11.2923C11.584 15.8332 11.8652 15.7846 12.1361 15.6873C12.4069 15.5901 12.6534 15.4443 12.8757 15.2498L16.334 12.3957C16.2229 12.2846 16.0979 12.2012 15.959 12.1457C15.8201 12.0901 15.6743 12.0484 15.5215 12.0207C15.2854 11.979 15.0562 11.9859 14.834 12.0415C14.6118 12.0971 14.4034 12.2012 14.209 12.354L11.959 14.1665H8.33398V12.4998H11.3757L12.2923 11.7498C12.3618 11.7082 12.4138 11.6526 12.4486 11.5832C12.4833 11.5137 12.5007 11.4373 12.5007 11.354C12.5007 11.2151 12.4486 11.0936 12.3444 10.9894C12.2402 10.8853 12.1187 10.8332 11.9798 10.8332ZM5.00065 10.8332H3.33398V16.6665H5.00065V10.8332ZM5.00065 18.3332H3.33398C2.87565 18.3332 2.48329 18.17 2.1569 17.8436C1.83051 17.5172 1.66732 17.1248 1.66732 16.6665V10.8332C1.66732 10.3748 1.83051 9.98248 2.1569 9.65609C2.48329 9.3297 2.87565 9.1665 3.33398 9.1665H11.9798C13.1604 9.1665 14.2993 9.36789 15.3965 9.77067C16.4937 10.1734 17.3757 10.854 18.0423 11.8123L18.6048 12.6665L13.959 16.5415C13.584 16.8609 13.1673 17.1005 12.709 17.2603C12.2507 17.42 11.7784 17.4998 11.2923 17.4998H6.43815C6.28537 17.7498 6.08398 17.9512 5.83398 18.104C5.58398 18.2568 5.30621 18.3332 5.00065 18.3332Z" fill="white" style="fill:white;fill-opacity:1;"/>
</g>
</svg>
