<svg width="16" height="16" viewBox="0 0 16 16" fill="none" xmlns="http://www.w3.org/2000/svg">
<mask id="mask0_403_2806" style="mask-type:alpha" maskUnits="userSpaceOnUse" x="0" y="0" width="16" height="16">
<rect width="16" height="16" fill="#D9D9D9" style="fill:#D9D9D9;fill:color(display-p3 0.8510 0.8510 0.8510);fill-opacity:1;"/>
</mask>
<g mask="url(#mask0_403_2806)">
<path d="M3.99935 14.667C3.63268 14.667 3.31879 14.5364 3.05768 14.2753C2.79657 14.0142 2.66602 13.7003 2.66602 13.3337V6.66699C2.66602 6.30033 2.79657 5.98644 3.05768 5.72533C3.31879 5.46421 3.63268 5.33366 3.99935 5.33366H4.66602V4.00033C4.66602 3.0781 4.99102 2.29199 5.64102 1.64199C6.29102 0.991992 7.07713 0.666992 7.99935 0.666992C8.92157 0.666992 9.70768 0.991992 10.3577 1.64199C11.0077 2.29199 11.3327 3.0781 11.3327 4.00033V5.33366H11.9993C12.366 5.33366 12.6799 5.46421 12.941 5.72533C13.2021 5.98644 13.3327 6.30033 13.3327 6.66699V13.3337C13.3327 13.7003 13.2021 14.0142 12.941 14.2753C12.6799 14.5364 12.366 14.667 11.9993 14.667H3.99935ZM3.99935 13.3337H11.9993V6.66699H3.99935V13.3337ZM7.99935 11.3337C8.36602 11.3337 8.6799 11.2031 8.94102 10.942C9.20213 10.6809 9.33268 10.367 9.33268 10.0003C9.33268 9.63366 9.20213 9.31977 8.94102 9.05866C8.6799 8.79755 8.36602 8.66699 7.99935 8.66699C7.63268 8.66699 7.31879 8.79755 7.05768 9.05866C6.79657 9.31977 6.66602 9.63366 6.66602 10.0003C6.66602 10.367 6.79657 10.6809 7.05768 10.942C7.31879 11.2031 7.63268 11.3337 7.99935 11.3337ZM5.99935 5.33366H9.99935V4.00033C9.99935 3.44477 9.8049 2.97255 9.41602 2.58366C9.02713 2.19477 8.5549 2.00033 7.99935 2.00033C7.44379 2.00033 6.97157 2.19477 6.58268 2.58366C6.19379 2.97255 5.99935 3.44477 5.99935 4.00033V5.33366Z" fill="white" style="fill:white;fill-opacity:1;"/>
</g>
</svg>
