<svg width="27" height="27" viewBox="0 0 27 27" fill="none" xmlns="http://www.w3.org/2000/svg">
<mask id="mask0_385_1481" style="mask-type:alpha" maskUnits="userSpaceOnUse" x="0" y="0" width="27" height="27">
<rect width="26.6717" height="26.6717" fill="#D9D9D9" style="fill:#D9D9D9;fill:color(display-p3 0.8510 0.8510 0.8510);fill-opacity:1;"/>
</mask>
<g mask="url(#mask0_385_1481)">
<path d="M14.4472 13.5304L16.9477 16.0308C17.1514 16.2346 17.2533 16.4893 17.2533 16.7949C17.2533 17.1005 17.1514 17.3644 16.9477 17.5867C16.7254 17.809 16.4615 17.9201 16.1559 17.9201C15.8503 17.9201 15.5863 17.809 15.364 17.5867L12.558 14.7806C12.4468 14.6695 12.3635 14.5444 12.3079 14.4055C12.2523 14.2666 12.2246 14.1231 12.2246 13.9749V10.0019C12.2246 9.68704 12.3311 9.4231 12.5441 9.2101C12.7571 8.99709 13.021 8.89059 13.3359 8.89059C13.6508 8.89059 13.9147 8.99709 14.1277 9.2101C14.3407 9.4231 14.4472 9.68704 14.4472 10.0019V13.5304ZM13.3359 6.66795C13.021 6.66795 12.7571 6.56145 12.5441 6.34844C12.3311 6.13544 12.2246 5.8715 12.2246 5.55662V4.4453H14.4472V5.55662C14.4472 5.8715 14.3407 6.13544 14.1277 6.34844C13.9147 6.56145 13.6508 6.66795 13.3359 6.66795ZM20.0038 13.3359C20.0038 13.021 20.1103 12.7571 20.3233 12.5441C20.5363 12.3311 20.8003 12.2246 21.1151 12.2246H22.2265V14.4472H21.1151C20.8003 14.4472 20.5363 14.3407 20.3233 14.1277C20.1103 13.9147 20.0038 13.6508 20.0038 13.3359ZM13.3359 20.0038C13.6508 20.0038 13.9147 20.1103 14.1277 20.3233C14.3407 20.5363 14.4472 20.8003 14.4472 21.1151V22.2265H12.2246V21.1151C12.2246 20.8003 12.3311 20.5363 12.5441 20.3233C12.7571 20.1103 13.021 20.0038 13.3359 20.0038ZM6.66795 13.3359C6.66795 13.6508 6.56145 13.9147 6.34844 14.1277C6.13544 14.3407 5.8715 14.4472 5.55662 14.4472H4.4453V12.2246H5.55662C5.8715 12.2246 6.13544 12.3311 6.34844 12.5441C6.56145 12.7571 6.66795 13.021 6.66795 13.3359ZM13.3359 24.4491C11.7986 24.4491 10.3538 24.1574 9.00172 23.5739C7.64961 22.9905 6.47347 22.1987 5.47327 21.1985C4.47308 20.1983 3.68127 19.0222 3.09782 17.67C2.51438 16.3179 2.22266 14.8732 2.22266 13.3359C2.22266 11.7986 2.51438 10.3538 3.09782 9.00172C3.68127 7.64961 4.47308 6.47347 5.47327 5.47327C6.47347 4.47308 7.64961 3.68127 9.00172 3.09782C10.3538 2.51438 11.7986 2.22266 13.3359 2.22266C14.8732 2.22266 16.3179 2.51438 17.67 3.09782C19.0222 3.68127 20.1983 4.47308 21.1985 5.47327C22.1987 6.47347 22.9905 7.64961 23.5739 9.00172C24.1574 10.3538 24.4491 11.7986 24.4491 13.3359C24.4491 14.8732 24.1574 16.3179 23.5739 17.67C22.9905 19.0222 22.1987 20.1983 21.1985 21.1985C20.1983 22.1987 19.0222 22.9905 17.67 23.5739C16.3179 24.1574 14.8732 24.4491 13.3359 24.4491ZM22.2265 13.3359C22.2265 10.8539 21.3652 8.75168 19.6426 7.02913C17.9201 5.30658 15.8178 4.4453 13.3359 4.4453C10.8539 4.4453 8.75168 5.30658 7.02913 7.02913C5.30658 8.75168 4.4453 10.8539 4.4453 13.3359C4.4453 15.8178 5.30658 17.9201 7.02913 19.6426C8.75168 21.3652 10.8539 22.2265 13.3359 22.2265C15.8178 22.2265 17.9201 21.3652 19.6426 19.6426C21.3652 17.9201 22.2265 15.8178 22.2265 13.3359Z" fill="#79BCCD" style="fill:#79BCCD;fill:color(display-p3 0.4745 0.7373 0.8039);fill-opacity:1;"/>
</g>
</svg>
