<svg width="20" height="20" viewBox="0 0 20 20" fill="none" xmlns="http://www.w3.org/2000/svg">
<mask id="mask0_179_1156" style="mask-type:alpha" maskUnits="userSpaceOnUse" x="0" y="0" width="20" height="20">
<rect width="20" height="20" fill="#D9D9D9" style="fill:#D9D9D9;fill:color(display-p3 0.8510 0.8510 0.8510);fill-opacity:1;"/>
</mask>
<g mask="url(#mask0_179_1156)">
<path d="M8.33268 16.6665H11.666V15.7498L12.7077 15.3332C13.6105 14.9721 14.3778 14.4686 15.0098 13.8228C15.6417 13.1769 16.0966 12.4582 16.3743 11.6665H3.62435C3.90213 12.4582 4.35352 13.1769 4.97852 13.8228C5.60352 14.4686 6.37435 14.9721 7.29102 15.3332L8.33268 15.7498V16.6665ZM6.66602 18.3332V16.8748C5.1799 16.2915 3.97504 15.3887 3.05143 14.1665C2.12782 12.9443 1.66602 11.5554 1.66602 9.99984H3.33268V3.33317L18.3327 1.6665V2.9165L8.74935 3.99984V5.4165H18.3327V6.6665H8.74935V9.99984H18.3327C18.3327 11.5554 17.8709 12.9443 16.9473 14.1665C16.0237 15.3887 14.8188 16.2915 13.3327 16.8748V18.3332H6.66602ZM6.66602 5.4165H7.49935V4.12484L6.66602 4.229V5.4165ZM4.58268 5.4165H5.41602V4.37484L4.58268 4.45817V5.4165ZM6.66602 9.99984H7.49935V6.6665H6.66602V9.99984ZM4.58268 9.99984H5.41602V6.6665H4.58268V9.99984Z" fill="white" style="fill:white;fill-opacity:1;"/>
</g>
</svg>
