<svg width="178" height="43" viewBox="0 0 178 43" fill="none" xmlns="http://www.w3.org/2000/svg">
<g clip-path="url(#clip0_385_1632)">
<path d="M110.103 1.49611L119.411 22.6271H115.479L113.334 17.5562H103.338L101.166 22.6271H97.3533L106.449 1.49611H110.103ZM104.688 14.2991H111.97L108.316 5.90502L104.688 14.2991ZM151.28 1.64175C157.926 1.64175 162.52 6.16982 162.52 12.0748V12.141C162.52 18.0461 157.926 22.6271 151.28 22.6271H143.389V1.64175H151.28ZM147.109 19.2641H151.28C155.715 19.2641 158.628 16.2984 158.628 12.194V12.1278C158.628 8.02341 155.728 4.99146 151.28 4.99146H147.109V19.2641ZM127.818 1.64175V19.2641H138.94V22.6271H124.098V1.64175H127.818ZM82.5378 1.64175C85.1991 1.64175 87.2777 2.42291 88.6415 3.73367C89.7536 4.8723 90.3891 6.43461 90.3891 8.26173V8.32793C90.3891 11.7703 88.3105 13.849 85.3447 14.6831L91.0511 22.6271H86.6687L81.4654 15.3186H76.8049V22.6271H73.0845V1.64175H82.5114M76.8182 12.0484H82.2598C84.921 12.0484 86.6157 10.6714 86.6157 8.53977V8.47357C86.6157 6.22278 84.9872 4.99146 82.2333 4.99146H76.8182V12.0351M66.822 1.64175V4.9385H54.8531V10.3934H65.4583V13.6901H54.8531V19.3303H66.9677V22.6271H51.1327V1.64175H66.8088M44.3406 1.64175V22.6271H40.6202V7.58649L33.9472 17.4767H33.8281L27.2081 7.63945V22.6271H23.5539V1.64175H27.5126L33.9472 11.5585L40.3818 1.64175H44.3406ZM17.1722 1.64175V4.9385H5.21654V10.3934H15.8217V13.6901H5.21654V19.3303H17.3311V22.6271H1.49611V1.64175H17.1722ZM111.07 0H105.456L105.072 0.900317L95.9764 22.0313L95.0761 24.1232H102.146L102.53 23.2229L104.318 19.0655H112.341L114.102 23.2229L114.486 24.1364H121.702L120.775 22.0445L111.467 0.913556L111.07 0.0264799V0ZM106.966 12.803L108.316 9.66516L109.68 12.803H106.952H106.966ZM151.28 0.145639H141.893V24.1232H151.28C158.535 24.1232 164.016 18.9728 164.016 12.141V12.0748C164.016 5.16358 158.654 0.145639 151.28 0.145639ZM148.605 6.50081H151.28C154.775 6.50081 157.132 8.76485 157.132 12.141V12.2072C157.132 15.5967 154.841 17.7813 151.28 17.7813H148.605V6.50081ZM129.315 0.145639H122.602V24.1232H140.423V17.7813H129.301V0.145639H129.315ZM82.5378 0.145639H71.6149V24.1232H78.3275V16.8147H80.7107L85.4639 23.5009L85.914 24.1364H93.9904L92.2824 21.7665L87.6882 15.3848C90.3891 13.9814 91.8985 11.5055 91.8985 8.34117V8.27497C91.8985 6.07714 91.1438 4.15734 89.7139 2.70095C87.9927 1.01948 85.5168 0.158879 82.5378 0.158879M78.3143 6.50081H82.2333C85.1196 6.50081 85.1196 7.98369 85.1196 8.47357V8.53977C85.1196 10.3536 83.1204 10.5522 82.2598 10.5522H78.3143V6.50081ZM68.3181 0.145639H49.6498V24.1232H68.477V17.8342H56.3625V15.1862H66.9677V8.89725H56.3625V6.43462H68.3314V0.145639H68.3181ZM45.8367 0.145639H39.5742L39.1373 0.834117L33.9605 8.81781L28.7836 0.834117L28.3467 0.145639H22.0842V24.1232H28.7307V12.5382L32.61 18.2976L33.0602 18.9596H34.7681L35.2183 18.2976L39.1638 12.4588V24.1099H45.8764V0.145639H45.8367ZM18.6683 0.145639H0V24.1232H18.8272V17.8342H6.71265V15.1862H17.3179V8.89725H6.71265V6.43462H18.6816V0.145639H18.6683ZM173.47 2.30375L175.601 4.8061L172.133 10.0624L168.703 4.84582L171.034 2.30375H173.47ZM174.158 0.807637H170.372L166.81 4.70018L171.497 11.81H172.768L177.468 4.70018L174.158 0.807637ZM10.7111 37.8663V37.8398C10.7111 35.258 12.6706 33.1528 15.451 33.1528C17.159 33.1528 18.1917 33.7354 19.0655 34.5695L18.0196 35.7479C17.2649 35.0726 16.497 34.6357 15.4245 34.6357C13.6901 34.6357 12.3926 36.0524 12.3926 37.8265V37.853C12.3926 39.6272 13.6636 41.0571 15.4245 41.0571C16.5499 41.0571 17.2781 40.6202 18.0725 39.892L19.1185 40.9247C18.152 41.9044 17.106 42.5267 15.3848 42.5267C12.6839 42.5267 10.6979 40.4745 10.6979 37.8663H10.7111ZM22.8124 33.2985H26.9168C28.0687 33.2985 28.9822 33.6295 29.578 34.1988C30.0679 34.6887 30.346 35.3639 30.346 36.1583V36.1848C30.346 37.6677 29.4324 38.568 28.1614 38.9254L30.6505 42.3546H28.7307L26.4667 39.1903H24.4409V42.3546H22.8257V33.2852L22.8124 33.2985ZM26.7977 37.8001C27.9495 37.8001 28.691 37.2043 28.691 36.2907V36.2642C28.691 35.2977 27.976 34.7681 26.7844 34.7681H24.4277V37.8133H26.7977V37.8001ZM34.1591 38.5283V33.3117H35.7743V38.4621C35.7743 40.1435 36.6614 41.0438 38.1046 41.0438C39.5477 41.0438 40.4216 40.1965 40.4216 38.5283V33.3117H42.0368V38.4488C42.0368 41.1498 40.4878 42.5135 38.0781 42.5135C35.6684 42.5135 34.1591 41.1498 34.1591 38.5283ZM46.3266 33.2985H47.9419V42.3678H46.3266V33.2985ZM51.7682 41.0438L52.7347 39.9052C53.6218 40.6599 54.5089 41.0836 55.6475 41.0836C56.6405 41.0836 57.276 40.6202 57.276 39.9449V39.9184C57.276 39.2697 56.9053 38.9254 55.1973 38.5283C53.2378 38.0649 52.1389 37.4955 52.1389 35.8273V35.8008C52.1389 34.2517 53.4497 33.1661 55.29 33.1661C56.6273 33.1661 57.6997 33.5633 58.6265 34.3047L57.7527 35.5095C56.9185 34.9005 56.0977 34.5827 55.2503 34.5827C54.3103 34.5827 53.7542 35.0594 53.7542 35.6552V35.6817C53.7542 36.3834 54.1779 36.6879 55.952 37.1116C57.8983 37.575 58.9045 38.2635 58.9045 39.7596V39.786C58.9045 41.4808 57.5541 42.487 55.621 42.487C54.2043 42.4974 52.8349 41.9779 51.7814 41.0306L51.7682 41.0438ZM62.7706 33.2985H69.6024V34.7284H64.3991V37.0851H69.0199V38.515H64.3991V40.9379H69.6686V42.3678H62.7706V33.2985ZM72.9389 41.0438L73.9186 39.9052C74.8057 40.6599 75.6928 41.0836 76.8314 41.0836C77.8244 41.0836 78.4599 40.6202 78.4599 39.9449V39.9184C78.4599 39.2697 78.0892 38.9254 76.3813 38.5283C74.4218 38.0649 73.3228 37.4955 73.3228 35.8273V35.8008C73.3228 34.2517 74.6336 33.1661 76.4607 33.1661C77.7979 33.1661 78.8704 33.5633 79.7972 34.3047L78.9233 35.5095C78.0892 34.9005 77.2683 34.5827 76.421 34.5827C75.4809 34.5827 74.9249 35.0594 74.9249 35.6552V35.6817C74.9249 36.3834 75.3485 36.6879 77.1227 37.1116C79.069 37.575 80.0752 38.2635 80.0752 39.7596V39.786C80.0752 41.4808 78.7247 42.487 76.7917 42.487C75.375 42.4974 74.0056 41.9779 72.9521 41.0306L72.9389 41.0438ZM92.4016 41.3219C91.6072 42.0501 90.6937 42.5002 89.5815 42.5002C87.8603 42.5002 86.5628 41.4808 86.5628 39.9052V39.8787C86.5628 38.7136 87.2777 37.8663 88.5355 37.3499C88.0059 36.6747 87.7676 36.1186 87.7676 35.4566V35.4301C87.7676 34.1988 88.7606 33.1396 90.4156 33.1396C91.872 33.1396 92.865 34.1061 92.865 35.3242V35.3507C92.865 36.5423 92.0574 37.2572 90.8393 37.7074L92.4148 39.2829C92.7591 38.7666 93.1033 38.1708 93.4078 37.5353L94.6259 38.1708C94.2552 38.899 93.8448 39.6139 93.3814 40.223L94.8377 41.6794L93.6329 42.54L92.4148 41.3086L92.4016 41.3219ZM91.4748 40.3951L89.4226 38.3297C88.562 38.6871 88.2045 39.2432 88.2045 39.8258V39.8522C88.2045 40.6202 88.8533 41.1762 89.7404 41.1762C90.3759 41.1762 90.9452 40.8717 91.4748 40.3818V40.3951ZM91.4219 35.4566V35.4301C91.4219 34.8211 90.9849 34.4106 90.3891 34.4106C89.7271 34.4106 89.2902 34.874 89.2902 35.4963V35.5228C89.2902 35.9729 89.4756 36.3172 89.9919 36.8733C90.9452 36.5423 91.4351 36.1053 91.4351 35.4566H91.4219ZM104.41 34.7813H101.484V33.2985H108.965V34.7813H106.039V42.3678H104.423V34.7813H104.41ZM111.705 37.8663V37.8398C111.705 35.2845 113.705 33.1528 116.538 33.1528C119.371 33.1528 121.344 35.258 121.344 37.8133V37.8398C121.344 40.3951 119.345 42.5267 116.512 42.5267C113.678 42.5267 111.705 40.4216 111.705 37.8663ZM119.636 37.8663V37.8398C119.636 36.0789 118.339 34.6225 116.512 34.6225C114.684 34.6225 113.413 36.0524 113.413 37.8133V37.8398C113.413 39.6007 114.711 41.0438 116.538 41.0438C118.365 41.0438 119.636 39.6139 119.636 37.853V37.8663ZM125.131 38.5283V33.3117H126.746V38.4621C126.746 40.1435 127.633 41.0438 129.076 41.0438C130.519 41.0438 131.393 40.1965 131.393 38.5283V33.3117H133.009V38.4488C133.009 41.1498 131.459 42.5135 129.05 42.5135C126.64 42.5135 125.131 41.1498 125.131 38.5283ZM137.206 33.2985H141.31C142.462 33.2985 143.375 33.6295 143.971 34.1988C144.461 34.6887 144.739 35.3639 144.739 36.1583V36.1848C144.739 37.6677 143.826 38.568 142.555 38.9254L145.044 42.3546H143.124L140.86 39.1903H138.834V42.3546H137.219V33.2852L137.206 33.2985ZM141.204 37.8001C142.356 37.8001 143.097 37.2043 143.097 36.2907V36.2642C143.097 35.2977 142.382 34.7681 141.191 34.7681H138.834V37.8133H141.204V37.8001ZM148.089 41.0438L149.069 39.9052C149.956 40.6599 150.843 41.0836 151.981 41.0836C152.974 41.0836 153.61 40.6202 153.61 39.9449V39.9184C153.61 39.2697 153.239 38.9254 151.531 38.5283C149.572 38.0649 148.473 37.4955 148.473 35.8273V35.8008C148.473 34.2517 149.784 33.1661 151.611 33.1661C152.948 33.1661 154.02 33.5633 154.947 34.3047L154.073 35.5095C153.239 34.9005 152.418 34.5827 151.571 34.5827C150.631 34.5827 150.075 35.0594 150.075 35.6552V35.6817C150.075 36.3834 150.499 36.6879 152.273 37.1116C154.219 37.575 155.225 38.2635 155.225 39.7596V39.786C155.225 41.4808 153.875 42.487 151.942 42.487C150.525 42.4974 149.156 41.9779 148.102 41.0306L148.089 41.0438Z" fill="white" style="fill:white;fill-opacity:1;"/>
</g>
<defs>
<clipPath id="clip0_385_1632">
<rect width="177.468" height="42.5532" fill="white" style="fill:white;fill-opacity:1;"/>
</clipPath>
</defs>
</svg>
