<svg width="259" height="62" viewBox="0 0 259 62" fill="none" xmlns="http://www.w3.org/2000/svg">
<g clip-path="url(#clip0_403_3498)">
<path d="M160.421 2.17984L173.982 32.9676H168.253L165.128 25.5793H150.563L147.4 32.9676H141.844L155.096 2.17984H160.421ZM152.531 20.8339H163.141L157.816 8.60361L152.531 20.8339ZM220.414 2.39204C230.098 2.39204 236.792 8.98942 236.792 17.593V17.6895C236.792 26.2931 230.098 32.9676 220.414 32.9676H208.917V2.39204H220.414ZM214.338 28.0678H220.414C226.877 28.0678 231.121 23.7467 231.121 17.7666V17.6702C231.121 11.6901 226.896 7.27256 220.414 7.27256H214.338V28.0678ZM186.231 2.39204V28.0678H202.436V32.9676H180.811V2.39204H186.231ZM120.258 2.39204C124.135 2.39204 127.164 3.53018 129.151 5.43995C130.771 7.09894 131.697 9.37523 131.697 12.0373V12.1338C131.697 17.1493 128.668 20.178 124.347 21.3933L132.661 32.9676H126.276L118.695 22.3192H111.905V32.9676H106.484V2.39204H120.219M111.924 17.5545H119.853C123.73 17.5545 126.199 15.5482 126.199 12.4424V12.346C126.199 9.06658 123.826 7.27256 119.814 7.27256H111.924V17.5352M97.3597 2.39204V7.1954H79.921V15.1431H95.3727V19.9465H79.921V28.1643H97.5719V32.9676H74.5003V2.39204H97.3404M64.6042 2.39204V32.9676H59.1836V11.0535L49.4611 25.4636H49.2875L39.6422 11.1307V32.9676H34.318V2.39204H40.0859L49.4611 16.8407L58.8363 2.39204H64.6042ZM25.0199 2.39204V7.1954H7.6005V15.1431H23.0523V19.9465H7.6005V28.1643H25.2514V32.9676H2.17984V2.39204H25.0199ZM161.829 0H153.65L153.09 1.31176L139.838 32.0996L138.526 35.1475H148.827L149.386 33.8357L151.991 27.7785H163.681L166.246 33.8357L166.806 35.1668H177.319L175.969 32.1189L162.408 1.33105L161.829 0.0385812V0ZM155.849 18.654L157.816 14.0821L159.803 18.654H155.829H155.849ZM220.414 0.212197H206.737V35.1475H220.414C230.986 35.1475 238.972 27.6434 238.972 17.6895V17.593C238.972 7.52334 231.159 0.212197 220.414 0.212197ZM216.518 9.47169H220.414C225.507 9.47169 228.941 12.7704 228.941 17.6895V17.7859C228.941 22.7243 225.604 25.9073 220.414 25.9073H216.518V9.47169ZM188.411 0.212197H178.631V35.1475H204.596V25.9073H188.392V0.212197H188.411ZM120.258 0.212197H104.343V35.1475H114.123V24.4991H117.596L124.521 34.2408L125.177 35.1668H136.944L134.456 31.7138L127.762 22.4157C131.697 20.3709 133.896 16.7635 133.896 12.1531V12.0566C133.896 8.85439 132.797 6.05725 130.713 3.93528C128.205 1.48538 124.598 0.231487 120.258 0.231487M114.104 9.47169H119.814C124.019 9.47169 124.019 11.6322 124.019 12.346V12.4424C124.019 15.0853 121.106 15.3746 119.853 15.3746H114.104V9.47169ZM99.5395 0.212197H72.3398V35.1475H99.771V25.9844H82.1201V22.1263H97.5719V12.9633H82.1201V9.37523H99.5588V0.212197H99.5395ZM66.7841 0.212197H57.6596L57.023 1.21531L49.4804 12.8475L41.9378 1.21531L41.3012 0.212197H32.1767V35.1475H41.8606V18.2682L47.5128 26.6596L48.1686 27.6241H50.6571L51.313 26.6596L57.0616 18.1525V35.1282H66.8419V0.212197H66.7841ZM27.1998 0.212197H0V35.1475H27.4312V25.9844H9.78034V22.1263H25.2321V12.9633H9.78034V9.37523H27.219V0.212197H27.1998ZM252.745 3.35657L255.851 7.00249L250.797 14.6609L245.801 7.06036L249.196 3.35657H252.745ZM253.749 1.17673H248.231L243.042 6.84816L249.871 17.2072H251.723L258.571 6.84816L253.749 1.17673ZM15.6061 55.1711V55.1325C15.6061 51.3709 18.4611 48.3037 22.5121 48.3037C25.0006 48.3037 26.5053 49.1525 27.7785 50.3678L26.2545 52.0846C25.1549 51.1008 24.0361 50.4642 22.4736 50.4642C19.9465 50.4642 18.056 52.5283 18.056 55.1133V55.1518C18.056 57.7368 19.9079 59.8202 22.4736 59.8202C24.1133 59.8202 25.1742 59.1836 26.3317 58.1226L27.8556 59.6273C26.4474 61.0548 24.9235 61.9614 22.4157 61.9614C18.4804 61.9614 15.5868 58.9714 15.5868 55.1711H15.6061ZM33.2377 48.5159H39.2178C40.8961 48.5159 42.2271 48.9981 43.0952 49.8276C43.809 50.5414 44.2141 51.5252 44.2141 52.6826V52.7212C44.2141 54.8818 42.883 56.1935 41.0311 56.7144L44.6577 61.7106H41.8606L38.5619 57.1002H35.6105V61.7106H33.257V48.4966L33.2377 48.5159ZM39.0442 55.0747C40.7225 55.0747 41.8027 54.2066 41.8027 52.8755V52.837C41.8027 51.4287 40.761 50.6571 39.0249 50.6571H35.5912V55.094H39.0442V55.0747ZM49.7698 56.1357V48.5352H52.1232V56.0392C52.1232 58.4891 53.4157 59.8009 55.5184 59.8009C57.621 59.8009 58.8942 58.5663 58.8942 56.1357V48.5352H61.2477V56.0199C61.2477 59.9552 58.9907 61.9421 55.4798 61.9421C51.9689 61.9421 49.7698 59.9552 49.7698 56.1357ZM67.4978 48.5159H69.8513V61.7299H67.4978V48.5159ZM75.4263 59.8009L76.8345 58.1419C78.1269 59.2414 79.4194 59.8587 81.0784 59.8587C82.5252 59.8587 83.4511 59.1836 83.4511 58.1998V58.1612C83.4511 57.2159 82.911 56.7144 80.4225 56.1357C77.5675 55.4605 75.9664 54.631 75.9664 52.2004V52.1618C75.9664 49.9048 77.8762 48.323 80.5576 48.323C82.5059 48.323 84.0685 48.9017 85.4188 49.982L84.1456 51.7374C82.9303 50.85 81.7343 50.3871 80.4997 50.3871C79.1301 50.3871 78.3198 51.0815 78.3198 51.9496V51.9882C78.3198 53.0106 78.9371 53.4543 81.5221 54.0716C84.3578 54.7467 85.8239 55.7498 85.8239 57.9297V57.9683C85.8239 60.4375 83.8562 61.9035 81.0398 61.9035C78.9757 61.9187 76.9804 61.1618 75.4455 59.7816L75.4263 59.8009ZM91.4567 48.5159H101.411V50.5993H93.8295V54.033H100.562V56.1164H93.8295V59.6465H101.507V61.7299H91.4567V48.5159ZM106.272 59.8009L107.699 58.1419C108.992 59.2414 110.284 59.8587 111.943 59.8587C113.39 59.8587 114.316 59.1836 114.316 58.1998V58.1612C114.316 57.2159 113.776 56.7144 111.287 56.1357C108.432 55.4605 106.831 54.631 106.831 52.2004V52.1618C106.831 49.9048 108.741 48.323 111.403 48.323C113.352 48.323 114.914 48.9017 116.264 49.982L114.991 51.7374C113.776 50.85 112.58 50.3871 111.345 50.3871C109.976 50.3871 109.166 51.0815 109.166 51.9496V51.9882C109.166 53.0106 109.783 53.4543 112.368 54.0716C115.203 54.7467 116.67 55.7498 116.67 57.9297V57.9683C116.67 60.4375 114.702 61.9035 111.885 61.9035C109.821 61.9187 107.826 61.1618 106.291 59.7816L106.272 59.8009ZM134.629 60.206C133.472 61.267 132.141 61.9228 130.52 61.9228C128.012 61.9228 126.122 60.4375 126.122 58.1419V58.1033C126.122 56.4057 127.164 55.1711 128.996 54.4188C128.225 53.435 127.877 52.6248 127.877 51.6602V51.6217C127.877 49.8276 129.324 48.2844 131.736 48.2844C133.857 48.2844 135.304 49.6926 135.304 51.4673V51.5059C135.304 53.2421 134.128 54.2838 132.353 54.9396L134.648 57.2352C135.15 56.4829 135.652 55.6148 136.095 54.6889L137.87 55.6148C137.33 56.6758 136.732 57.7175 136.057 58.6049L138.179 60.7268L136.423 61.9807L134.648 60.1867L134.629 60.206ZM133.279 58.8556L130.289 55.8463C129.035 56.3671 128.514 57.1774 128.514 58.0261V58.0647C128.514 59.1836 129.459 59.9938 130.752 59.9938C131.678 59.9938 132.507 59.5501 133.279 58.8363V58.8556ZM133.202 51.6602V51.6217C133.202 50.7343 132.565 50.1363 131.697 50.1363C130.732 50.1363 130.096 50.8115 130.096 51.7181V51.7567C130.096 52.4126 130.366 52.9141 131.118 53.7243C132.507 53.2421 133.221 52.6055 133.221 51.6602H133.202ZM152.126 50.6764H147.862V48.5159H158.762V50.6764H154.498V61.7299H152.145V50.6764H152.126ZM162.755 55.1711V55.1325C162.755 51.4095 165.668 48.3037 169.796 48.3037C173.924 48.3037 176.798 51.3709 176.798 55.094V55.1325C176.798 58.8556 173.885 61.9614 169.757 61.9614C165.629 61.9614 162.755 58.8942 162.755 55.1711ZM174.31 55.1711V55.1325C174.31 52.5669 172.419 50.4449 169.757 50.4449C167.095 50.4449 165.243 52.5283 165.243 55.094V55.1325C165.243 57.6982 167.134 59.8009 169.796 59.8009C172.458 59.8009 174.31 57.7175 174.31 55.1518V55.1711ZM182.315 56.1357V48.5352H184.669V56.0392C184.669 58.4891 185.961 59.8009 188.064 59.8009C190.167 59.8009 191.44 58.5663 191.44 56.1357V48.5352H193.793V56.0199C193.793 59.9552 191.536 61.9421 188.026 61.9421C184.515 61.9421 182.315 59.9552 182.315 56.1357ZM199.909 48.5159H205.889C207.567 48.5159 208.898 48.9981 209.766 49.8276C210.48 50.5414 210.885 51.5252 210.885 52.6826V52.7212C210.885 54.8818 209.554 56.1935 207.702 56.7144L211.329 61.7106H208.531L205.233 57.1002H202.281V61.7106H199.928V48.4966L199.909 48.5159ZM205.734 55.0747C207.413 55.0747 208.493 54.2066 208.493 52.8755V52.837C208.493 51.4287 207.451 50.6571 205.715 50.6571H202.281V55.094H205.734V55.0747ZM215.765 59.8009L217.193 58.1419C218.485 59.2414 219.778 59.8587 221.437 59.8587C222.884 59.8587 223.81 59.1836 223.81 58.1998V58.1612C223.81 57.2159 223.269 56.7144 220.781 56.1357C217.926 55.4605 216.325 54.631 216.325 52.2004V52.1618C216.325 49.9048 218.235 48.323 220.897 48.323C222.845 48.323 224.408 48.9017 225.758 49.982L224.485 51.7374C223.269 50.85 222.073 50.3871 220.839 50.3871C219.469 50.3871 218.659 51.0815 218.659 51.9496V51.9882C218.659 53.0106 219.276 53.4543 221.861 54.0716C224.697 54.7467 226.163 55.7498 226.163 57.9297V57.9683C226.163 60.4375 224.195 61.9035 221.379 61.9035C219.315 61.9187 217.32 61.1618 215.785 59.7816L215.765 59.8009Z" fill="#59878C" style="fill:#59878C;fill:color(display-p3 0.3490 0.5294 0.5490);fill-opacity:1;"/>
</g>
<defs>
<clipPath id="clip0_403_3498">
<rect width="258.571" height="62" fill="white" style="fill:white;fill-opacity:1;"/>
</clipPath>
</defs>
</svg>
