<svg width="18" height="18" viewBox="0 0 18 18" fill="none" xmlns="http://www.w3.org/2000/svg">
<path d="M8.95216 5.30176C6.72994 5.30176 4.88867 7.11128 4.88867 9.36525C4.88867 11.6192 6.6982 13.4287 8.95216 13.4287C11.2061 13.4287 13.0157 11.5875 13.0157 9.36525C13.0157 7.14303 11.1744 5.30176 8.95216 5.30176ZM8.95216 11.9684C7.52359 11.9684 6.34899 10.7938 6.34899 9.36525C6.34899 7.93668 7.52359 6.76207 8.95216 6.76207C10.3807 6.76207 11.5553 7.93668 11.5553 9.36525C11.5553 10.7938 10.3807 11.9684 8.95216 11.9684Z" fill="#59878C" style="fill:#59878C;fill:color(display-p3 0.3490 0.5294 0.5490);fill-opacity:1;"/>
<path d="M13.1745 6.1274C13.683 6.1274 14.0952 5.71522 14.0952 5.20677C14.0952 4.69831 13.683 4.28613 13.1745 4.28613C12.6661 4.28613 12.2539 4.69831 12.2539 5.20677C12.2539 5.71522 12.6661 6.1274 13.1745 6.1274Z" fill="#59878C" style="fill:#59878C;fill:color(display-p3 0.3490 0.5294 0.5490);fill-opacity:1;"/>
<path d="M15.5563 2.82502C14.7309 1.96788 13.5563 1.52344 12.2229 1.52344H5.68325C2.92135 1.52344 1.08008 3.36471 1.08008 6.12661V12.6345C1.08008 13.9996 1.52452 15.1742 2.41341 16.0314C3.27055 16.8568 4.41341 17.2695 5.715 17.2695H12.1912C13.5563 17.2695 14.6991 16.825 15.5245 16.0314C16.3817 15.206 16.8261 14.0314 16.8261 12.6663V6.12661C16.8261 4.79328 16.3817 3.65042 15.5563 2.82502ZM15.4293 12.6663C15.4293 13.6504 15.0801 14.4441 14.5086 14.9838C13.9372 15.5234 13.1436 15.8092 12.1912 15.8092H5.715C4.76262 15.8092 3.96897 15.5234 3.39754 14.9838C2.82611 14.4123 2.5404 13.6187 2.5404 12.6345V6.12661C2.5404 5.17423 2.82611 4.38058 3.39754 3.80915C3.93722 3.26947 4.76262 2.98375 5.715 2.98375H12.2547C13.2071 2.98375 14.0007 3.26947 14.5721 3.8409C15.1118 4.41233 15.4293 5.20598 15.4293 6.12661V12.6663Z" fill="#59878C" style="fill:#59878C;fill:color(display-p3 0.3490 0.5294 0.5490);fill-opacity:1;"/>
</svg>
