<svg width="16" height="16" viewBox="0 0 16 16" fill="none" xmlns="http://www.w3.org/2000/svg">
<g clip-path="url(#clip0_403_2978)">
<path d="M15.75 8.09375C15.75 6.03775 14.934 4.06675 13.48 2.61375C12.027 1.15975 10.056 0.34375 8 0.34375C5.944 0.34375 3.973 1.15975 2.52 2.61375C1.066 4.06675 0.25 6.03775 0.25 8.09375C0.251 11.9067 3.024 15.1528 6.79 15.7498V10.3337H4.82V8.09375H6.79V6.38575C6.79 4.44375 7.945 3.37075 9.716 3.37075C10.564 3.37075 11.451 3.52175 11.451 3.52175V5.42975H10.474C9.511 5.42975 9.211 6.02675 9.211 6.63975V8.09475H11.361L11.017 10.3348H9.21V15.7508C12.976 15.1538 15.748 11.9078 15.749 8.09475L15.75 8.09375Z" fill="#59878C" style="fill:#59878C;fill:color(display-p3 0.3490 0.5294 0.5490);fill-opacity:1;"/>
</g>
<defs>
<clipPath id="clip0_403_2978">
<rect width="16" height="16" fill="white" style="fill:white;fill-opacity:1;"/>
</clipPath>
</defs>
</svg>
