<svg width="16" height="16" viewBox="0 0 16 16" fill="none" xmlns="http://www.w3.org/2000/svg">
<path d="M1 3C1 1.895 1.895 1 3 1H3.915C4.488 1 4.988 1.391 5.127 1.947L5.864 4.895C5.986 5.383 5.804 5.897 5.401 6.199L4.539 6.845C4.449 6.913 4.43 7.011 4.455 7.08C5.217 9.151 6.849 10.783 8.92 11.545C8.989 11.57 9.087 11.551 9.155 11.461L9.801 10.599C10.103 10.196 10.617 10.014 11.105 10.136L14.053 10.873C14.609 11.012 15 11.512 15 12.086V13C15 14.105 14.105 15 13 15H11.5C5.701 15 1 10.299 1 4.5V3Z" fill="white" style="fill:white;fill-opacity:1;"/>
</svg>
